<?xml version="1.0" encoding="utf-8"?>
<!-- Generator: Adobe Illustrator 23.0.1, SVG Export Plug-In . SVG Version: 6.00 Build 0)  -->
<svg version="1.1" id="Layer_1" xmlns="http://www.w3.org/2000/svg" xmlns:xlink="http://www.w3.org/1999/xlink" x="0px" y="0px"
	 viewBox="0 0 621.1 241.3" style="enable-background:new 0 0 621.1 241.3;" xml:space="preserve">
<style type="text/css">
	.st0{display:none;}
	.st1{display:none;fill:none;stroke:#FF0000;stroke-miterlimit:10;}
	.st2{display:none;fill:#103A36;stroke:#FF0000;stroke-miterlimit:10;}
	.st3{fill:#103A36;}
</style>
<g class="st0">
</g>
<g>
	<line class="st1" x1="5.6" y1="-0.9" x2="647.2" y2="-0.9"/>
	<polyline class="st2" points="15.8,240 615,240 668.3,240 	"/>
	<rect x="5.6" y="-0.9" class="st3" width="31.1" height="119.1"/>
	<rect x="96.4" y="32.3" class="st3" width="60.8" height="31"/>
	<rect x="185.3" y="209" class="st3" width="60.8" height="31"/>
	<rect x="451.6" y="210.2" class="st3" width="56" height="29.7"/>
	<rect x="453.4" y="-0.9" class="st3" width="56" height="29.7"/>
	<rect x="289.6" y="32.3" class="st3" width="38.2" height="31"/>
	<rect x="289.6" y="209" class="st3" width="38.2" height="31"/>
	<rect x="230.9" y="32.1" class="st3" width="31" height="60.8"/>
	<rect x="96.4" y="209" class="st3" width="60.8" height="31"/>
	<rect x="96.4" y="32.3" class="st3" width="31" height="207.6"/>
	<rect x="185.3" y="32.3" class="st3" width="31" height="207.6"/>
	<rect x="391.6" y="71.2" class="st3" width="31" height="168.8"/>
	<rect x="391.6" y="33.6" class="st3" width="31" height="31.1"/>
	<rect x="337.5" y="12.3" class="st3" width="31" height="227.8"/>
	<rect x="91.4" y="-0.9" class="st3" width="331.2" height="26.2"/>
	<rect x="531.8" y="-0.9" class="st3" width="51" height="26.2"/>
	<path class="st3" d="M288.1,240L288.1,240c-8.6,0-15.5-7-15.5-15.5V47.8c0-8.6,7-15.5,15.5-15.5l0,0c8.6,0,15.5,6.9,15.5,15.5
		v176.6C303.7,233.1,296.7,240,288.1,240z"/>
	<path class="st3" d="M246.4,240L246.4,240c-8.6,0-15.5-7-15.5-15.5V47.8c0-8.6,7-15.5,15.5-15.5l0,0c8.6,0,15.5,6.9,15.5,15.5
		v176.6C262,233.1,255,240,246.4,240z"/>
	<path class="st3" d="M246.4,240L246.4,240c-8.6,0-15.5-7-15.5-15.5V47.8c0-8.6,7-15.5,15.5-15.5l0,0c8.6,0,15.5,6.9,15.5,15.5
		v176.6C262,233.1,255,240,246.4,240z"/>
	<path class="st3" d="M154.6,240L154.6,240c-8.6,0-15.5-7-15.5-15.5V47.8c0-8.6,7-15.5,15.5-15.5l0,0c8.6,0,15.5,6.9,15.5,15.5
		v176.6C170.1,233.1,163.2,240,154.6,240z"/>
	<path class="st3" d="M453.4,240L453.4,240c-8.6,0-15.5-7-15.5-15.5V14.7c0-8.6,7-15.5,15.5-15.5l0,0c8.6,0,15.5,6.9,15.5,15.5
		v209.8C468.9,233.1,462,240,453.4,240z"/>
	<path class="st3" d="M507,240L507,240c-8.6,0-15.5-7-15.5-15.5V14.7c0-8.6,7-15.5,15.5-15.5l0,0c8.6,0,15.5,6.9,15.5,15.5v209.8
		C522.5,233.1,515.6,240,507,240z"/>
	
		<rect x="34.7" y="130.1" transform="matrix(0.7071 -0.7071 0.7071 0.7071 -101.9205 83.8192)" class="st3" width="31" height="69.7"/>
	
		<rect x="560.9" y="64.2" transform="matrix(0.7071 -0.7071 0.7071 0.7071 98.7975 436.6043)" class="st3" width="31" height="69.7"/>
	<rect x="54.9" y="-0.9" class="st3" width="31.1" height="240.9"/>
	<rect x="590.1" y="-1.2" class="st3" width="31" height="240.9"/>
	<rect x="5.6" y="129.4" class="st3" width="31.1" height="110.6"/>
	<rect x="531.8" y="33.6" class="st3" width="31" height="206.4"/>
</g>
</svg>
