<svg xmlns="http://www.w3.org/2000/svg" viewBox="0 0 284 111"><defs><style>.cls-1{fill:#103a36;}</style></defs><title>Asset 5</title><g id="Layer_2" data-name="Layer 2"><g id="Layer_1-2" data-name="Layer 1"><rect class="cls-1" width="14" height="55"/><rect class="cls-1" x="49" y="9" width="14" height="28" transform="translate(79 -33) rotate(90)"/><rect class="cls-1" x="90" y="90" width="14" height="28" transform="translate(201 7) rotate(90)"/><rect class="cls-1" x="212" y="91" width="14" height="26" transform="translate(323 -115) rotate(90)"/><rect class="cls-1" x="213" y="-6" width="14" height="26" transform="translate(227 -213) rotate(90)"/><rect class="cls-1" x="133" y="14" width="14" height="18" transform="translate(163 -117) rotate(90)"/><rect class="cls-1" x="133" y="95" width="14" height="18" transform="translate(244 -36) rotate(90)"/><rect class="cls-1" x="104" y="15" width="14" height="28"/><rect class="cls-1" x="49" y="90" width="14" height="28" transform="translate(160 48) rotate(90)"/><rect class="cls-1" x="42" y="15" width="14" height="96"/><rect class="cls-1" x="83" y="15" width="14" height="96"/><rect class="cls-1" x="178" y="33" width="14" height="78"/><rect class="cls-1" x="178" y="16" width="14" height="14"/><rect class="cls-1" x="153" y="6" width="14" height="105"/><rect class="cls-1" x="110.5" y="-70.5" width="12" height="153" transform="translate(110.5 122.5) rotate(-90)"/><rect class="cls-1" x="249" y="-6" width="12" height="24" transform="translate(249 261) rotate(-90)"/><rect class="cls-1" x="123" y="15" width="14" height="96" rx="4.28"/><rect class="cls-1" x="104" y="15" width="14" height="96" rx="4.28"/><rect class="cls-1" x="104" y="15" width="14" height="96" rx="4.28"/><rect class="cls-1" x="62" y="15" width="14" height="96" rx="4.28"/><rect class="cls-1" x="200" width="14" height="111" rx="4.27"/><rect class="cls-1" x="224" width="14" height="111" rx="4.27"/><rect class="cls-1" x="13.5" y="60.61" width="14.32" height="32.16" transform="translate(-48.18 37.07) rotate(-45)"/><rect class="cls-1" x="256.25" y="30.2" width="14.32" height="32.16" transform="translate(44.43 199.81) rotate(-45)"/><rect class="cls-1" x="23" width="14" height="111"/><rect class="cls-1" x="270" width="14" height="111"/><rect class="cls-1" y="60" width="14" height="51"/><rect class="cls-1" x="243" y="16" width="14" height="95"/></g></g></svg>