<?xml version="1.0" encoding="utf-8"?>
<!-- Generator: Adobe Illustrator 23.0.1, SVG Export Plug-In . SVG Version: 6.00 Build 0)  -->
<svg preserveAspectRatio='none' version="1.1" id="Layer_1" xmlns="http://www.w3.org/2000/svg" xmlns:xlink="http://www.w3.org/1999/xlink" x="0px" y="0px"
	 viewBox="0 0 962 400" style="enable-background:new 0 0 962 400;" xml:space="preserve">
<style type="text/css">
	.st0{fill:url(#SVGID_1_);}
</style>
<title>Asset 2</title>
<g>
	<g id="Layer_1-2">
		<linearGradient id="SVGID_1_" gradientUnits="userSpaceOnUse" x1="962.1139" y1="201.1251" x2="-0.1139" y2="198.8448">
			<stop  offset="0" style="stop-color:#0E7772"/>
			<stop  offset="0.1" style="stop-color:#0F645F"/>
			<stop  offset="0.23" style="stop-color:#0F514D"/>
			<stop  offset="0.39" style="stop-color:#104440"/>
			<stop  offset="0.6" style="stop-color:#103C38"/>
			<stop  offset="1" style="stop-color:#103A36"/>
		</linearGradient>
		<path class="st0" d="M962,143.2v106c-47.5,29.4-100.7,48.4-156,55.8c-68.7,9.2-81.6-8.8-143-6.6c-155.9,5.6-207.1,124.9-305,97.5
			c-47.4-13.2-43.3-43.5-110-61.5c-53.7-14.6-77.8-0.9-130-14.2c-31-7.9-76.5-24-118-63.4v-106c47.5-29.4,100.7-48.4,156-55.8
			c68.7-9.2,81.6,8.8,143,6.6C454.9,96,506.1-23.3,604,4.1c47.4,13.2,43.3,43.5,110,61.5c53.7,14.6,77.8,0.9,130,14.2
			C875,87.7,920.5,103.8,962,143.2z"/>
	</g>
</g>
</svg>
