<svg xmlns="http://www.w3.org/2000/svg" xmlns:xlink="http://www.w3.org/1999/xlink" viewBox="0 0 71.5 66.5"><defs><style>.cls-1{fill:url(#linear-gradient);}.cls-2{fill:url(#linear-gradient-2);}.cls-3{fill:url(#linear-gradient-3);}.cls-10,.cls-11,.cls-12,.cls-13,.cls-4,.cls-5,.cls-6,.cls-7,.cls-8,.cls-9{fill:none;stroke-miterlimit:10;stroke-width:2px;}.cls-4{stroke:url(#linear-gradient-4);}.cls-5{stroke:url(#linear-gradient-5);}.cls-6{stroke:url(#linear-gradient-6);}.cls-7{stroke:url(#linear-gradient-7);}.cls-8{stroke:url(#linear-gradient-8);}.cls-9{stroke:url(#linear-gradient-9);}.cls-10{stroke:url(#linear-gradient-10);}.cls-11{stroke:url(#linear-gradient-11);}.cls-12{stroke:url(#linear-gradient-12);}.cls-13{stroke:url(#linear-gradient-13);}.cls-14{fill:url(#linear-gradient-14);}.cls-15{fill:url(#linear-gradient-15);}.cls-16{fill:url(#linear-gradient-16);}</style><linearGradient id="linear-gradient" x1="1" y1="6" x2="12" y2="6" gradientUnits="userSpaceOnUse"><stop offset="0" stop-color="#fff276"/><stop offset="1" stop-color="#ffaf66"/></linearGradient><linearGradient id="linear-gradient-2" x1="20.5" y1="6.5" x2="31.5" y2="6.5" xlink:href="#linear-gradient"/><linearGradient id="linear-gradient-3" x1="40" y1="6" x2="51" y2="6" xlink:href="#linear-gradient"/><linearGradient id="linear-gradient-4" x1="58.5" y1="6.5" x2="71.5" y2="6.5" xlink:href="#linear-gradient"/><linearGradient id="linear-gradient-5" x1="0" y1="24" x2="13" y2="24" xlink:href="#linear-gradient"/><linearGradient id="linear-gradient-6" x1="19.5" y1="24.5" x2="32.5" y2="24.5" xlink:href="#linear-gradient"/><linearGradient id="linear-gradient-7" x1="39" y1="24" x2="52" y2="24" xlink:href="#linear-gradient"/><linearGradient id="linear-gradient-8" x1="58.5" y1="24.5" x2="71.5" y2="24.5" xlink:href="#linear-gradient"/><linearGradient id="linear-gradient-9" x1="0" y1="42" x2="13" y2="42" xlink:href="#linear-gradient"/><linearGradient id="linear-gradient-10" x1="19.5" y1="42.5" x2="32.5" y2="42.5" xlink:href="#linear-gradient"/><linearGradient id="linear-gradient-11" x1="39" y1="42" x2="52" y2="42" xlink:href="#linear-gradient"/><linearGradient id="linear-gradient-12" x1="58.5" y1="42.5" x2="71.5" y2="42.5" xlink:href="#linear-gradient"/><linearGradient id="linear-gradient-13" x1="0" y1="60" x2="13" y2="60" xlink:href="#linear-gradient"/><linearGradient id="linear-gradient-14" x1="20.5" y1="60.5" x2="31.5" y2="60.5" xlink:href="#linear-gradient"/><linearGradient id="linear-gradient-15" x1="40" y1="60" x2="51" y2="60" xlink:href="#linear-gradient"/><linearGradient id="linear-gradient-16" x1="59.5" y1="60.5" x2="70.5" y2="60.5" xlink:href="#linear-gradient"/></defs><title>Asset 2</title><g id="Layer_2" data-name="Layer 2"><g id="Layer_1-2" data-name="Layer 1"><circle class="cls-1" cx="6.5" cy="6" r="5.5"/><circle class="cls-2" cx="26" cy="6.5" r="5.5"/><circle class="cls-3" cx="45.5" cy="6" r="5.5"/><circle class="cls-4" cx="65" cy="6.5" r="5.5"/><circle class="cls-5" cx="6.5" cy="24" r="5.5"/><circle class="cls-6" cx="26" cy="24.5" r="5.5"/><circle class="cls-7" cx="45.5" cy="24" r="5.5"/><circle class="cls-8" cx="65" cy="24.5" r="5.5"/><circle class="cls-9" cx="6.5" cy="42" r="5.5"/><circle class="cls-10" cx="26" cy="42.5" r="5.5"/><circle class="cls-11" cx="45.5" cy="42" r="5.5"/><circle class="cls-12" cx="65" cy="42.5" r="5.5"/><circle class="cls-13" cx="6.5" cy="60" r="5.5"/><circle class="cls-14" cx="26" cy="60.5" r="5.5"/><circle class="cls-15" cx="45.5" cy="60" r="5.5"/><circle class="cls-16" cx="65" cy="60.5" r="5.5"/></g></g></svg>