<svg xmlns="http://www.w3.org/2000/svg" xmlns:xlink="http://www.w3.org/1999/xlink" viewBox="0 0 90.55 61.89"><defs><style>.cls-1,.cls-2,.cls-3,.cls-4,.cls-5{fill:none;stroke-miterlimit:10;stroke-width:0.77px;}.cls-1{stroke:url(#linear-gradient);}.cls-2{stroke:url(#linear-gradient-2);}.cls-3{stroke:url(#linear-gradient-3);}.cls-4{stroke:url(#linear-gradient-4);}.cls-5{stroke:url(#linear-gradient-5);}</style><linearGradient id="linear-gradient" x1="-0.48" y1="3.91" x2="152.21" y2="3.91" gradientTransform="matrix(0.59, 0, 0, 1, 0.29, -0.53)" gradientUnits="userSpaceOnUse"><stop offset="0" stop-color="#fff276"/><stop offset="1" stop-color="#ffaf66"/></linearGradient><linearGradient id="linear-gradient-2" x1="-0.12" y1="17.66" x2="152.58" y2="17.66" xlink:href="#linear-gradient"/><linearGradient id="linear-gradient-3" x1="0.24" y1="31.41" x2="152.94" y2="31.41" xlink:href="#linear-gradient"/><linearGradient id="linear-gradient-4" x1="0.6" y1="45.16" x2="153.3" y2="45.16" xlink:href="#linear-gradient"/><linearGradient id="linear-gradient-5" x1="0.96" y1="58.91" x2="153.66" y2="58.91" xlink:href="#linear-gradient"/></defs><title>Asset 3</title><g id="Layer_2" data-name="Layer 2"><g id="Layer_1-2" data-name="Layer 1"><path class="cls-1" d="M0,.38c4.49,0,4.48,6,9,6s4.5-6,9-6,4.48,6,9,6,4.5-6,9-6,4.47,6,9,6,4.5-6,9-6,4.48,6,9,6,4.5-6,9-6,4.48,6,9,6,4.5-6,9-6"/><path class="cls-2" d="M.19,14.13c4.49,0,4.48,6,9,6s4.5-6,9-6,4.48,6,9,6,4.5-6,9-6,4.48,6,9,6,4.5-6,9-6,4.48,6,9,6,4.5-6,9-6,4.48,6,9,6,4.5-6,9-6"/><path class="cls-3" d="M.38,27.88c4.49,0,4.48,6,9,6s4.5-6,9-6,4.48,6,9,6,4.5-6,9-6,4.48,6,9,6,4.5-6,9-6,4.48,6,9,6,4.5-6,9-6,4.48,6,9,6,4.5-6,9-6"/><path class="cls-4" d="M.58,41.63c4.48,0,4.48,6,9,6s4.5-6,9-6,4.48,6,9,6,4.49-6,9-6,4.48,6,9,6,4.49-6,9-6,4.48,6,9,6,4.49-6,9-6,4.48,6,9,6,4.5-6,9-6"/><path class="cls-5" d="M.77,55.38c4.49,0,4.48,6,9,6s4.49-6,9-6,4.48,6,9,6,4.49-6,9-6,4.48,6,9,6,4.5-6,9-6,4.48,6,9,6,4.49-6,9-6,4.49,6,9,6,4.5-6,9-6"/></g></g></svg>