<svg preserveAspectRatio='none' id="Layer_1" data-name="Layer 1" xmlns="http://www.w3.org/2000/svg" viewBox="0 0 1200 800"><defs><style>.cls-1{fill:#0a0a0a;}.cls-2{fill:#222;}.cls-3{fill:#111;}.cls-4{fill:#1c1c1c;}.cls-5{fill:#1a1a1a;}</style></defs><title>texture</title><polygon class="cls-1" points="0 479.46 194.07 234.74 0 0 0 479.46"/><polygon class="cls-2" points="0 800 180.58 602.79 0 479.46 0 800"/><polygon class="cls-3" points="194.07 234.74 180.58 602.79 0 479.46 194.07 234.74"/><polygon class="cls-3" points="348.23 0 194.07 234.74 0 0 348.23 0"/><polygon class="cls-3" points="180.58 602.79 320.17 800 0 800 180.58 602.79"/><polygon class="cls-4" points="194.07 234.74 362.62 291.41 187.32 418.76 194.07 234.74"/><polygon class="cls-1" points="180.58 602.79 362.62 418.76 187.32 418.76 180.58 602.79"/><polygon class="cls-3" points="362.62 291.41 362.62 418.76 187.32 418.76 362.62 291.41"/><polygon class="cls-4" points="348.23 0 540.91 219.24 362.62 291.41 348.23 0"/><polygon class="cls-1" points="194.07 234.74 348.23 0 362.62 291.41 194.07 234.74"/><polygon class="cls-3" points="1200 320.54 1005.93 565.26 1200 800 1200 320.54"/><polygon class="cls-5" points="1005.93 565.26 1019.42 197.21 1200 320.54 1005.93 565.26"/><polygon class="cls-1" points="851.77 800 1005.93 565.26 1200 800 851.77 800"/><polygon class="cls-3" points="1005.93 565.26 837.38 508.59 1012.68 381.24 1005.93 565.26"/><polygon class="cls-4" points="1005.93 565.26 851.77 800 837.38 508.59 1005.93 565.26"/><polygon class="cls-3" points="540.91 219.24 681 0 348.23 0 540.91 219.24"/><polygon class="cls-1" points="362.62 418.76 600 550.35 540.91 219.24 362.62 418.76"/><polygon class="cls-5" points="362.62 291.41 362.62 418.76 540.91 219.24 362.62 291.41"/><polygon class="cls-1" points="320.17 800 460.71 473.13 180.58 602.79 320.17 800"/><polygon class="cls-2" points="362.62 418.76 180.58 602.79 460.71 473.13 362.62 418.76"/><polygon class="cls-5" points="600 550.35 589.73 701.39 348.23 734.75 600 550.35"/><polygon class="cls-3" points="460.71 473.13 348.23 734.75 600 550.35 460.71 473.13"/><polygon class="cls-5" points="681 0 859.29 185.28 570.46 384.8 681 0"/><polygon class="cls-2" points="540.91 219.24 570.46 384.8 681 0 540.91 219.24"/><polygon class="cls-3" points="859.29 185.28 1054.56 0 681 0 859.29 185.28"/><polygon class="cls-3" points="589.73 701.39 681 800 444.57 800 589.73 701.39"/><polygon class="cls-3" points="348.23 734.75 444.57 800 589.73 701.39 348.23 734.75"/><polygon class="cls-5" points="320.17 800 444.57 800 348.23 734.75 320.17 800"/><polygon class="cls-3" points="1054.56 0 1200 234.74 1200 0 1054.56 0"/><polygon class="cls-1" points="1054.56 0 1019.42 197.21 1200 320.54 1054.56 0"/><polygon class="cls-4" points="1200 234.74 1200 320.54 1054.56 0 1200 234.74"/><polygon class="cls-1" points="837.38 508.59 1019.42 197.21 1012.68 381.24 837.38 508.59"/><polygon class="cls-5" points="1054.56 0 859.29 185.28 1019.42 197.21 1054.56 0"/><polygon class="cls-3" points="570.46 384.8 830.16 319 859.29 185.28 570.46 384.8"/><polygon class="cls-3" points="1019.42 197.21 830.16 319 859.29 185.28 1019.42 197.21"/><polygon class="cls-5" points="600 550.35 830.16 319 570.46 384.8 600 550.35"/><polygon class="cls-4" points="1019.42 197.21 830.16 319 837.38 508.59 1019.42 197.21"/><polygon class="cls-4" points="589.73 701.39 795.63 550.35 600 550.35 589.73 701.39"/><polygon class="cls-3" points="830.16 319 795.63 550.35 600 550.35 830.16 319"/><polygon class="cls-1" points="589.73 701.39 770.13 701.39 681 800 589.73 701.39"/><polygon class="cls-3" points="795.63 550.35 770.13 701.39 589.73 701.39 795.63 550.35"/><polygon class="cls-5" points="830.16 319 795.63 550.35 837.38 508.59 830.16 319"/><polygon class="cls-1" points="770.13 701.39 837.38 508.59 795.63 550.35 770.13 701.39"/><polygon class="cls-5" points="851.77 800 770.13 701.39 681 800 851.77 800"/><polygon class="cls-3" points="837.38 508.59 770.13 701.39 851.77 800 837.38 508.59"/><polygon class="cls-3" points="362.62 418.76 570.46 384.8 540.91 219.24 362.62 418.76"/><polygon class="cls-3" points="1005.93 565.26 1067.63 800 851.77 800 1005.93 565.26"/><polygon class="cls-4" points="194.07 234.74 0 297.3 0 0 194.07 234.74"/><polygon class="cls-1" points="180.58 602.79 0 636.57 0 479.46 180.58 602.79"/></svg>